<svg width="119" height="132" viewBox="0 0 119 132" fill="none" xmlns="http://www.w3.org/2000/svg">
<path d="M87.7345 3.14995L115.121 28.0522H89.5C89.4995 28.0522 89.4988 28.0523 89.498 28.0523C89.4716 28.0533 89.2701 28.0612 88.9295 27.5021C88.571 26.9136 88.2384 25.9582 87.97 24.6362C87.4384 22.0177 87.25 18.446 87.25 14.7761C87.25 11.1281 87.4353 7.47056 87.6216 4.71882C87.6598 4.1545 87.698 3.62888 87.7345 3.14995ZM84.8575 1.5C84.7912 2.28402 84.7098 3.31407 84.6284 4.51625C84.4397 7.30555 84.25 11.0361 84.25 14.7761C84.25 18.4943 84.4366 22.3106 85.03 25.2332C85.3241 26.6817 85.7415 28.0351 86.3674 29.0627C87.0002 30.1017 88.0156 31.0522 89.5 31.0522H117.5V122C117.5 126.694 113.694 130.5 109 130.5H10C5.30558 130.5 1.5 126.694 1.5 122V10C1.5 5.30558 5.30558 1.5 10 1.5H84.8575Z" fill="white" stroke="black" stroke-width="4"/>
<path d="M79.821 97.0142L70.2046 39.9327L51.4609 42.9969L32.7173 46.0611L42.0001 103.433" stroke="#826DFB" stroke-width="4"/>
<ellipse cx="74.5" cy="94.0746" rx="7.5" ry="7.38806" fill="#826DFB"/>
<ellipse cx="36.5" cy="99.9851" rx="7.5" ry="7.38806" fill="#826DFB"/>
<path d="M36 65.5075L73 59.1045" stroke="#826DFB" stroke-width="4"/>
</svg>
