<svg width="119" height="134" viewBox="0 0 119 134" fill="none" xmlns="http://www.w3.org/2000/svg">
<path d="M87.7356 3.1819L115.164 28.5H89.5L89.4993 28.5C89.4855 28.5013 89.2826 28.5191 88.9347 27.9392C88.5735 27.3372 88.2397 26.3626 87.9709 25.0183C87.4383 22.3557 87.25 18.7263 87.25 15C87.25 11.2953 87.4354 7.58128 87.6217 4.78728C87.6602 4.20941 87.6987 3.67152 87.7356 3.1819ZM84.8596 1.5C84.7928 2.29892 84.7106 3.35401 84.6283 4.58772C84.4396 7.41872 84.25 11.2047 84.25 15C84.25 18.7737 84.4367 22.6443 85.0291 25.6067C85.3228 27.0749 85.739 28.4441 86.3622 29.4827C86.99 30.5289 88.0045 31.5 89.5 31.5H117.5V124C117.5 128.694 113.694 132.5 109 132.5H10C5.30558 132.5 1.5 128.694 1.5 124V10C1.5 5.30558 5.30558 1.5 10 1.5H84.8596Z" fill="white" stroke="black" stroke-width="4"/>
<circle cx="56" cy="74" r="23.5" fill="white" stroke="#826DFB" stroke-width="4"/>
<path d="M52 82V67L66 75L52 82Z" stroke="#826DFB" stroke-width="4"/>
</svg>
